<?xml version="1.0" encoding="UTF-8"?>
<!-- Created with Inkscape (http://www.inkscape.org/) -->
<svg width="239.65mm" height="323.11mm" version="1.1" viewBox="0 0 239.65 323.11" xmlns="http://www.w3.org/2000/svg" xmlns:xlink="http://www.w3.org/1999/xlink">
 <defs>
  <pattern id="pattern12" x="-13" y="14" patternTransform="scale(1.61)" preserveAspectRatio="xMidYMid" xlink:href="#TableCloth"/>
  <pattern id="TableCloth" width="50" height="50" fill="none" patternUnits="userSpaceOnUse" preserveAspectRatio="xMidYMid">
   <rect width="50" height="50" fill="none"/>
   <path d="m0.5 25.5v22l2 2h22v-19l-5-5z" fill="#afecda"/>
   <path d="m30.5 25.5-5 5v19h22l2-2v-22z" fill="#a8cbfe"/>
   <path d="m25.5 0.5v19l5 5h19v-22l-2-2z" fill="#cbbbe9"/>
   <path d="m2.5 0.5-2 2v22h19l5-5v-19z" fill="#f0b6d3"/>
   <path d="m17.5 37.5c0 2.7614-2.2386 5-5 5-2.7614 0-5-2.2386-5-5 0-2.7614 2.2386-5 5-5 2.7614 0 5 2.2386 5 5zm2.5 0c0-4.155-3.345-7.5-7.5-7.5h-12v15h12c4.155 0 7.5-3.345 7.5-7.5z" fill="#ffe9a6"/>
   <path d="m42.5 37.5c0 2.7614-2.2386 5-5 5-2.7614 0-5-2.2386-5-5 0-2.7614 2.2386-5 5-5 2.7614 0 5 2.2386 5 5zm-5-7.5c-4.155 0-7.5 3.345-7.5 7.5v12h15v-12c0-4.155-3.345-7.5-7.5-7.5z" fill="#ea95bf"/>
   <path d="m12.5 7.5c2.77 0 5 2.23 5 5s-2.23 5-5 5-5-2.23-5-5 2.23-5 5-5zm0 12.5c4.155 0 7.5-3.345 7.5-7.5v-12h-15v12c0 4.155 3.345 7.5 7.5 7.5z" fill="#81b4fe"/>
   <path d="m42.5 12.5c0 2.7614-2.2386 5-5 5-2.7614 0-5-2.2386-5-5 0-2.7614 2.2386-5 5-5 2.7614 0 5 2.2386 5 5zm-12.5 0c0 4.155 3.345 7.5 7.5 7.5h12v-15h-12c-4.155 0-7.5 3.345-7.5 7.5z" fill="#8be3c9"/>
   <path d="m25.5 30.5h5v-5z" fill="#81b4fe"/>
   <path d="m24.5 30.5h-5v-5z" fill="#67dab8"/>
   <path d="m24.5 19.5h-5v5z" fill="#ea95bf"/>
   <path d="m25.5 19.5h5v5z" fill="#b49ddf"/>
   <path d="m49.5 47.5h-2v2z" fill="#81b4fe"/>
   <path d="m0.5 47.5h2v2z" fill="#67dab8"/>
   <path d="m0.5 2.5h2v-2z" fill="#ea95bf"/>
   <path d="m49.5 2.5h-2v-2z" fill="#b49ddf"/>
  </pattern>
 </defs>
 <g transform="translate(-.46281 -1.4043)">
  <rect x=".46281" y="1.4043" width="239.65" height="323.11" ry="14.752" fill="url(#pattern12)" stroke-width=".26458"/>
  <rect x="7.5112" y="9.612" width="225.55" height="306.7" ry="20.371" fill="#fff" stroke-width=".25008"/>
 </g>
</svg>
